<svg width="56" height="56" viewBox="0 0 56 56" fill="none" xmlns="http://www.w3.org/2000/svg">
<path d="M12.3115 48.6035L16.3569 50.5092H10.1217C9.77892 50.5092 9.49487 50.225 9.49487 49.8823V6.09366C9.49487 5.751 9.77892 5.4668 10.1217 5.4668H16.407L12.2864 7.40591C11.6345 7.73189 11.2332 8.37544 11.2332 9.09428V46.9068C11.2332 47.634 11.6595 48.3026 12.3115 48.6035ZM45.8781 5.4668H29.8805V9.71278H42.2674V46.2632H29.8805V50.5092H45.8781C46.2292 50.5092 46.5049 50.225 46.5049 49.8823V6.09366C46.5049 5.751 46.2292 5.4668 45.8781 5.4668Z" fill="#80B213"/>
<path d="M28.3343 1.55528C28.1503 1.44662 27.9247 1.42988 27.7324 1.52186L12.8465 8.52599C12.6293 8.63465 12.4871 8.85198 12.4871 9.0944V46.9069C12.4871 47.1493 12.6293 47.3666 12.8465 47.4669L27.7324 54.4795C27.8161 54.5129 27.908 54.538 27.9999 54.538C28.117 54.538 28.234 54.5045 28.3343 54.4377C28.5181 54.3207 28.6268 54.1201 28.6268 53.9111V2.09021C28.6268 1.87289 28.5181 1.6723 28.3343 1.55528ZM24.5689 29.5627C23.9286 29.5627 23.3797 29.1768 23.1379 28.6258H19.4609V27.3721H23.1378C23.3796 26.8209 23.9285 26.435 24.5689 26.435C25.4327 26.435 26.1328 27.1352 26.1328 27.9988C26.1328 28.8625 25.4327 29.5627 24.5689 29.5627Z" fill="#80B213"/>
</svg>
